<svg width="135" height="49" viewBox="0 0 135 49" xmlns="http://www.w3.org/2000/svg"><title>Imported Layers</title><desc>Created with Sketch.</desc><g fill="#F15A24"><path d="M55.127 12.808h3.433v21.76h-3.433v-21.76z"/><path d="M68.964 15.676H62.57v-2.868h16.25v2.868h-6.423v18.89h-3.433v-18.89"/><path d="M89.124 18.98c.74 1.04 2.82 4.13 3.23 4.895l-1.506 1.778c-.328-.875-1.04-2.297-1.724-3.583v13.456H86.74V23.82c-.738 2.572-1.696 4.95-2.682 6.537-.246-.738-.82-1.887-1.232-2.543 1.533-2.188 2.985-6.345 3.696-9.846h-3.15v-2.352h3.37v-5.142h2.382v5.142h2.573v2.352h-2.573v1.012zm12.21-2.297v3.582h5.532v2.38h-13.69v-2.38h5.53v-3.582H92.41v-2.407h6.296v-3.83h2.63v3.83h6.46v2.407h-6.46zm-7.693 8.505h12.678V35.58H93.64V25.19zm2.493 7.803h7.584v-5.504h-7.584v5.505z"/><path d="M134.816 24.03h-10.428v8.35c0 1.56-.383 2.326-1.533 2.71-1.15.41-2.277.464-4.823.464-.164-.74-.658-1.915-1.095-2.626 2.08.082 3.454.082 4.056.055.575-.027.74-.164.74-.657V24.03H111.14V21.49h10.592v-2.973c2.026-.957 4.41-2.434 6.188-3.857h-14.51V12.17h17.303l.575-.137 1.916 1.477c-2.327 2.243-5.694 4.704-8.816 6.345v1.633h10.428v2.543"/><path d="M49.036 24.432c0 13.48-10.94 24.406-24.433 24.406C11.11 48.838.17 37.91.17 24.432.17 10.952 11.11.026 24.603.026c13.494 0 24.433 10.927 24.433 24.406zM24.603 1.858c-12.48 0-22.6 10.107-22.6 22.574 0 12.467 10.12 22.574 22.6 22.574 12.48 0 22.6-10.107 22.6-22.574 0-12.467-10.12-22.574-22.6-22.574z"/><path d="M24.59 24.432L4.713 23.044C5.147 16.86 8.078 11.686 13.16 8.13l11.43 16.302"/><path d="M24.59 24.432l-11.142 16.5c-5.145-3.467-8.165-8.59-8.706-14.765l19.847-1.735"/><path d="M24.59 24.432l8.733 17.887c-5.578 2.717-11.53 2.77-17.154.15l8.42-18.038"/><path d="M24.59 24.432l19.873 1.388c-.432 6.184-3.363 11.36-8.447 14.914L24.59 24.432"/><path d="M24.59 24.432l11.14-16.5c5.145 3.468 8.165 8.59 8.706 14.766L24.59 24.432"/><path d="M24.59 24.432L15.854 6.545c5.578-2.717 11.53-2.77 17.154-.15l-8.42 18.037"/></g></svg>